<?xml version="1.0" encoding="UTF-8" standalone="no"?>
<svg width="200" height="200" viewBox="0 0 200 200" fill="none" xmlns="http://www.w3.org/2000/svg">
  <rect width="200" height="200" fill="#F3F4F6"/>
  <path d="M100 70C88.9543 70 80 78.9543 80 90C80 101.046 88.9543 110 100 110C111.046 110 120 101.046 120 90C120 78.9543 111.046 70 100 70Z" fill="#D1D5DB"/>
  <path d="M140 140H60C60 123.431 73.4315 110 90 110H110C126.569 110 140 123.431 140 140Z" fill="#D1D5DB"/>
  <path d="M100 50C72.3858 50 50 72.3858 50 100C50 127.614 72.3858 150 100 150C127.614 150 150 127.614 150 100C150 72.3858 127.614 50 100 50ZM100 140C77.9086 140 60 122.091 60 100C60 77.9086 77.9086 60 100 60C122.091 60 140 77.9086 140 100C140 122.091 122.091 140 100 140Z" fill="#9CA3AF"/>
</svg>
